<svg xmlns="http://www.w3.org/2000/svg" width="800" height="600" viewBox="0 0 800 600">
  <rect width="800" height="600" fill="#ece1d3"/>
  <g stroke="#cdb9a0" stroke-width="1">
    <path d="M0 40 H800 M0 80 H800 M0 120 H800 M0 160 H800 M0 200 H800 M0 240 H800 M0 280 H800 M0 320 H800 M0 360 H800 M0 400 H800 M0 440 H800 M0 480 H800 M0 520 H800 M0 560 H800"/>
    <path d="M40 0 V600 M80 0 V600 M120 0 V600 M160 0 V600 M200 0 V600 M240 0 V600 M280 0 V600 M320 0 V600 M360 0 V600 M400 0 V600 M440 0 V600 M480 0 V600 M520 0 V600 M560 0 V600 M600 0 V600 M640 0 V600 M680 0 V600 M720 0 V600 M760 0 V600"/>
  </g>
  <g fill="none" stroke="#7a5c43" stroke-width="3">
    <rect x="220" y="180" width="360" height="240"/>
    <path d="M220 260 H580 M300 180 V420 M300 320 H420 M420 260 V420"/>
    <path d="M220 180 L260 140 H620 L580 180 M580 420 L620 460 V460"/>
  </g>
  <text x="400" y="540" text-anchor="middle" font-family="monospace" font-size="22" fill="#8a6f55">DETALIU — schiță seed</text>
</svg>
